<mxfile host="app.diagrams.net" modified="2023-11-15T08:19:29.653Z" agent="Mozilla/5.0 (Windows NT 10.0; Win64; x64) AppleWebKit/537.36 (KHTML, like Gecko) Chrome/119.0.0.0 Safari/537.36" version="21.7.5" etag="2c46AXKvjohca5K3ZaQ6" type="github">
  <diagram name="第 1 页" id="SmgTQHbW5lkSXws85F1x">
    <mxGraphModel>
      <root>
        <mxCell id="0" />
        <mxCell id="1" parent="0" />
      </root>
    </mxGraphModel>
  </diagram>
</mxfile>
